G04 #@! TF.GenerationSoftware,KiCad,Pcbnew,8.0.8*
G04 #@! TF.CreationDate,2025-03-17T22:03:57+00:00*
G04 #@! TF.ProjectId,fan_PCB02,66616e5f-5043-4423-9032-2e6b69636164,rev?*
G04 #@! TF.SameCoordinates,Original*
G04 #@! TF.FileFunction,Copper,L1,Top*
G04 #@! TF.FilePolarity,Positive*
%FSLAX46Y46*%
G04 Gerber Fmt 4.6, Leading zero omitted, Abs format (unit mm)*
G04 Created by KiCad (PCBNEW 8.0.8) date 2025-03-17 22:03:57*
%MOMM*%
%LPD*%
G01*
G04 APERTURE LIST*
G04 Aperture macros list*
%AMRoundRect*
0 Rectangle with rounded corners*
0 $1 Rounding radius*
0 $2 $3 $4 $5 $6 $7 $8 $9 X,Y pos of 4 corners*
0 Add a 4 corners polygon primitive as box body*
4,1,4,$2,$3,$4,$5,$6,$7,$8,$9,$2,$3,0*
0 Add four circle primitives for the rounded corners*
1,1,$1+$1,$2,$3*
1,1,$1+$1,$4,$5*
1,1,$1+$1,$6,$7*
1,1,$1+$1,$8,$9*
0 Add four rect primitives between the rounded corners*
20,1,$1+$1,$2,$3,$4,$5,0*
20,1,$1+$1,$4,$5,$6,$7,0*
20,1,$1+$1,$6,$7,$8,$9,0*
20,1,$1+$1,$8,$9,$2,$3,0*%
G04 Aperture macros list end*
G04 #@! TA.AperFunction,ComponentPad*
%ADD10RoundRect,0.250000X0.750000X-0.600000X0.750000X0.600000X-0.750000X0.600000X-0.750000X-0.600000X0*%
G04 #@! TD*
G04 #@! TA.AperFunction,ComponentPad*
%ADD11O,2.000000X1.700000*%
G04 #@! TD*
G04 #@! TA.AperFunction,ComponentPad*
%ADD12R,1.100000X1.800000*%
G04 #@! TD*
G04 #@! TA.AperFunction,ComponentPad*
%ADD13RoundRect,0.275000X0.275000X0.625000X-0.275000X0.625000X-0.275000X-0.625000X0.275000X-0.625000X0*%
G04 #@! TD*
G04 #@! TA.AperFunction,ComponentPad*
%ADD14C,1.600000*%
G04 #@! TD*
G04 #@! TA.AperFunction,ComponentPad*
%ADD15O,1.600000X1.600000*%
G04 #@! TD*
G04 #@! TA.AperFunction,ComponentPad*
%ADD16R,1.700000X1.700000*%
G04 #@! TD*
G04 #@! TA.AperFunction,ComponentPad*
%ADD17O,1.700000X1.700000*%
G04 #@! TD*
G04 #@! TA.AperFunction,Conductor*
%ADD18C,0.800000*%
G04 #@! TD*
G04 #@! TA.AperFunction,Conductor*
%ADD19C,0.500000*%
G04 #@! TD*
G04 APERTURE END LIST*
D10*
X31242000Y127000000D03*
D11*
X31242000Y129500000D03*
D12*
X23368000Y129432000D03*
D13*
X22098000Y127362000D03*
X20828000Y129432000D03*
D14*
X18034000Y122174000D03*
D15*
X28194000Y122174000D03*
D16*
X15748000Y130810000D03*
D17*
X15748000Y128270000D03*
X15748000Y125730000D03*
D18*
X28534000Y133858000D02*
X18288000Y133858000D01*
X18288000Y133858000D02*
X18288000Y131700000D01*
X31242000Y129500000D02*
X31242000Y131150000D01*
X31242000Y131150000D02*
X28534000Y133858000D01*
X18288000Y131700000D02*
X17398000Y130810000D01*
X31600000Y129500000D02*
X31750000Y129500000D01*
X17398000Y130810000D02*
X15748000Y130810000D01*
D19*
X18034000Y123444000D02*
X15748000Y125730000D01*
X18034000Y122174000D02*
X18034000Y123444000D01*
X28194000Y123952000D02*
X24384000Y123952000D01*
X28194000Y122174000D02*
X28194000Y123952000D01*
X22098000Y126238000D02*
X22098000Y127762000D01*
X24384000Y123952000D02*
X22098000Y126238000D01*
D18*
X25146000Y131826000D02*
X20828000Y131826000D01*
X20828000Y131826000D02*
X20828000Y129032000D01*
X31242000Y127000000D02*
X25146000Y127000000D01*
X25146000Y127000000D02*
X25146000Y131826000D01*
M02*
