G04 #@! TF.GenerationSoftware,KiCad,Pcbnew,8.0.8*
G04 #@! TF.CreationDate,2025-03-17T22:03:57+00:00*
G04 #@! TF.ProjectId,fan_PCB02,66616e5f-5043-4423-9032-2e6b69636164,rev?*
G04 #@! TF.SameCoordinates,Original*
G04 #@! TF.FileFunction,Legend,Top*
G04 #@! TF.FilePolarity,Positive*
%FSLAX46Y46*%
G04 Gerber Fmt 4.6, Leading zero omitted, Abs format (unit mm)*
G04 Created by KiCad (PCBNEW 8.0.8) date 2025-03-17 22:03:57*
%MOMM*%
%LPD*%
G01*
G04 APERTURE LIST*
G04 Aperture macros list*
%AMRoundRect*
0 Rectangle with rounded corners*
0 $1 Rounding radius*
0 $2 $3 $4 $5 $6 $7 $8 $9 X,Y pos of 4 corners*
0 Add a 4 corners polygon primitive as box body*
4,1,4,$2,$3,$4,$5,$6,$7,$8,$9,$2,$3,0*
0 Add four circle primitives for the rounded corners*
1,1,$1+$1,$2,$3*
1,1,$1+$1,$4,$5*
1,1,$1+$1,$6,$7*
1,1,$1+$1,$8,$9*
0 Add four rect primitives between the rounded corners*
20,1,$1+$1,$2,$3,$4,$5,0*
20,1,$1+$1,$4,$5,$6,$7,0*
20,1,$1+$1,$6,$7,$8,$9,0*
20,1,$1+$1,$8,$9,$2,$3,0*%
G04 Aperture macros list end*
%ADD10C,0.100000*%
%ADD11C,0.150000*%
%ADD12C,0.200000*%
%ADD13C,0.120000*%
%ADD14RoundRect,0.250000X0.750000X-0.600000X0.750000X0.600000X-0.750000X0.600000X-0.750000X-0.600000X0*%
%ADD15O,2.000000X1.700000*%
%ADD16R,1.100000X1.800000*%
%ADD17RoundRect,0.275000X0.275000X0.625000X-0.275000X0.625000X-0.275000X-0.625000X0.275000X-0.625000X0*%
%ADD18C,1.600000*%
%ADD19O,1.600000X1.600000*%
%ADD20R,1.700000X1.700000*%
%ADD21O,1.700000X1.700000*%
%ADD22C,2.200000*%
G04 APERTURE END LIST*
D10*
X12166667Y128618033D02*
X12100000Y128651366D01*
X12100000Y128651366D02*
X12000000Y128651366D01*
X12000000Y128651366D02*
X11900000Y128618033D01*
X11900000Y128618033D02*
X11833334Y128551366D01*
X11833334Y128551366D02*
X11800000Y128484700D01*
X11800000Y128484700D02*
X11766667Y128351366D01*
X11766667Y128351366D02*
X11766667Y128251366D01*
X11766667Y128251366D02*
X11800000Y128118033D01*
X11800000Y128118033D02*
X11833334Y128051366D01*
X11833334Y128051366D02*
X11900000Y127984700D01*
X11900000Y127984700D02*
X12000000Y127951366D01*
X12000000Y127951366D02*
X12066667Y127951366D01*
X12066667Y127951366D02*
X12166667Y127984700D01*
X12166667Y127984700D02*
X12200000Y128018033D01*
X12200000Y128018033D02*
X12200000Y128251366D01*
X12200000Y128251366D02*
X12066667Y128251366D01*
X12500000Y127951366D02*
X12500000Y128651366D01*
X12500000Y128651366D02*
X12900000Y127951366D01*
X12900000Y127951366D02*
X12900000Y128651366D01*
X13233333Y127951366D02*
X13233333Y128651366D01*
X13233333Y128651366D02*
X13400000Y128651366D01*
X13400000Y128651366D02*
X13500000Y128618033D01*
X13500000Y128618033D02*
X13566667Y128551366D01*
X13566667Y128551366D02*
X13600000Y128484700D01*
X13600000Y128484700D02*
X13633333Y128351366D01*
X13633333Y128351366D02*
X13633333Y128251366D01*
X13633333Y128251366D02*
X13600000Y128118033D01*
X13600000Y128118033D02*
X13566667Y128051366D01*
X13566667Y128051366D02*
X13500000Y127984700D01*
X13500000Y127984700D02*
X13400000Y127951366D01*
X13400000Y127951366D02*
X13233333Y127951366D01*
X11746000Y126078033D02*
X11679333Y126111366D01*
X11679333Y126111366D02*
X11579333Y126111366D01*
X11579333Y126111366D02*
X11479333Y126078033D01*
X11479333Y126078033D02*
X11412667Y126011366D01*
X11412667Y126011366D02*
X11379333Y125944700D01*
X11379333Y125944700D02*
X11346000Y125811366D01*
X11346000Y125811366D02*
X11346000Y125711366D01*
X11346000Y125711366D02*
X11379333Y125578033D01*
X11379333Y125578033D02*
X11412667Y125511366D01*
X11412667Y125511366D02*
X11479333Y125444700D01*
X11479333Y125444700D02*
X11579333Y125411366D01*
X11579333Y125411366D02*
X11646000Y125411366D01*
X11646000Y125411366D02*
X11746000Y125444700D01*
X11746000Y125444700D02*
X11779333Y125478033D01*
X11779333Y125478033D02*
X11779333Y125711366D01*
X11779333Y125711366D02*
X11646000Y125711366D01*
X12079333Y125411366D02*
X12079333Y126111366D01*
X12079333Y126111366D02*
X12346000Y126111366D01*
X12346000Y126111366D02*
X12412667Y126078033D01*
X12412667Y126078033D02*
X12446000Y126044700D01*
X12446000Y126044700D02*
X12479333Y125978033D01*
X12479333Y125978033D02*
X12479333Y125878033D01*
X12479333Y125878033D02*
X12446000Y125811366D01*
X12446000Y125811366D02*
X12412667Y125778033D01*
X12412667Y125778033D02*
X12346000Y125744700D01*
X12346000Y125744700D02*
X12079333Y125744700D01*
X12779333Y125411366D02*
X12779333Y126111366D01*
X13246000Y126111366D02*
X13379333Y126111366D01*
X13379333Y126111366D02*
X13446000Y126078033D01*
X13446000Y126078033D02*
X13512666Y126011366D01*
X13512666Y126011366D02*
X13546000Y125878033D01*
X13546000Y125878033D02*
X13546000Y125644700D01*
X13546000Y125644700D02*
X13512666Y125511366D01*
X13512666Y125511366D02*
X13446000Y125444700D01*
X13446000Y125444700D02*
X13379333Y125411366D01*
X13379333Y125411366D02*
X13246000Y125411366D01*
X13246000Y125411366D02*
X13179333Y125444700D01*
X13179333Y125444700D02*
X13112666Y125511366D01*
X13112666Y125511366D02*
X13079333Y125644700D01*
X13079333Y125644700D02*
X13079333Y125878033D01*
X13079333Y125878033D02*
X13112666Y126011366D01*
X13112666Y126011366D02*
X13179333Y126078033D01*
X13179333Y126078033D02*
X13246000Y126111366D01*
D11*
X25724000Y130793442D02*
X26024000Y129893442D01*
X26024000Y129893442D02*
X26324000Y130793442D01*
X27138286Y129979157D02*
X27095429Y129936300D01*
X27095429Y129936300D02*
X26966857Y129893442D01*
X26966857Y129893442D02*
X26881143Y129893442D01*
X26881143Y129893442D02*
X26752572Y129936300D01*
X26752572Y129936300D02*
X26666857Y130022014D01*
X26666857Y130022014D02*
X26624000Y130107728D01*
X26624000Y130107728D02*
X26581143Y130279157D01*
X26581143Y130279157D02*
X26581143Y130407728D01*
X26581143Y130407728D02*
X26624000Y130579157D01*
X26624000Y130579157D02*
X26666857Y130664871D01*
X26666857Y130664871D02*
X26752572Y130750585D01*
X26752572Y130750585D02*
X26881143Y130793442D01*
X26881143Y130793442D02*
X26966857Y130793442D01*
X26966857Y130793442D02*
X27095429Y130750585D01*
X27095429Y130750585D02*
X27138286Y130707728D01*
X28038286Y129979157D02*
X27995429Y129936300D01*
X27995429Y129936300D02*
X27866857Y129893442D01*
X27866857Y129893442D02*
X27781143Y129893442D01*
X27781143Y129893442D02*
X27652572Y129936300D01*
X27652572Y129936300D02*
X27566857Y130022014D01*
X27566857Y130022014D02*
X27524000Y130107728D01*
X27524000Y130107728D02*
X27481143Y130279157D01*
X27481143Y130279157D02*
X27481143Y130407728D01*
X27481143Y130407728D02*
X27524000Y130579157D01*
X27524000Y130579157D02*
X27566857Y130664871D01*
X27566857Y130664871D02*
X27652572Y130750585D01*
X27652572Y130750585D02*
X27781143Y130793442D01*
X27781143Y130793442D02*
X27866857Y130793442D01*
X27866857Y130793442D02*
X27995429Y130750585D01*
X27995429Y130750585D02*
X28038286Y130707728D01*
D10*
X11766666Y131191366D02*
X12000000Y130491366D01*
X12000000Y130491366D02*
X12233333Y131191366D01*
X12866666Y130558033D02*
X12833333Y130524700D01*
X12833333Y130524700D02*
X12733333Y130491366D01*
X12733333Y130491366D02*
X12666666Y130491366D01*
X12666666Y130491366D02*
X12566666Y130524700D01*
X12566666Y130524700D02*
X12500000Y130591366D01*
X12500000Y130591366D02*
X12466666Y130658033D01*
X12466666Y130658033D02*
X12433333Y130791366D01*
X12433333Y130791366D02*
X12433333Y130891366D01*
X12433333Y130891366D02*
X12466666Y131024700D01*
X12466666Y131024700D02*
X12500000Y131091366D01*
X12500000Y131091366D02*
X12566666Y131158033D01*
X12566666Y131158033D02*
X12666666Y131191366D01*
X12666666Y131191366D02*
X12733333Y131191366D01*
X12733333Y131191366D02*
X12833333Y131158033D01*
X12833333Y131158033D02*
X12866666Y131124700D01*
X13566666Y130558033D02*
X13533333Y130524700D01*
X13533333Y130524700D02*
X13433333Y130491366D01*
X13433333Y130491366D02*
X13366666Y130491366D01*
X13366666Y130491366D02*
X13266666Y130524700D01*
X13266666Y130524700D02*
X13200000Y130591366D01*
X13200000Y130591366D02*
X13166666Y130658033D01*
X13166666Y130658033D02*
X13133333Y130791366D01*
X13133333Y130791366D02*
X13133333Y130891366D01*
X13133333Y130891366D02*
X13166666Y131024700D01*
X13166666Y131024700D02*
X13200000Y131091366D01*
X13200000Y131091366D02*
X13266666Y131158033D01*
X13266666Y131158033D02*
X13366666Y131191366D01*
X13366666Y131191366D02*
X13433333Y131191366D01*
X13433333Y131191366D02*
X13533333Y131158033D01*
X13533333Y131158033D02*
X13566666Y131124700D01*
D11*
X21132017Y121793466D02*
X20732017Y121793466D01*
X20932017Y121793466D02*
X20932017Y122493466D01*
X20932017Y122493466D02*
X20865350Y122393466D01*
X20865350Y122393466D02*
X20798684Y122326800D01*
X20798684Y122326800D02*
X20732017Y122293466D01*
X21798684Y121793466D02*
X21398684Y121793466D01*
X21598684Y121793466D02*
X21598684Y122493466D01*
X21598684Y122493466D02*
X21532017Y122393466D01*
X21532017Y122393466D02*
X21465351Y122326800D01*
X21465351Y122326800D02*
X21398684Y122293466D01*
X22232018Y122493466D02*
X22298684Y122493466D01*
X22298684Y122493466D02*
X22365351Y122460133D01*
X22365351Y122460133D02*
X22398684Y122426800D01*
X22398684Y122426800D02*
X22432018Y122360133D01*
X22432018Y122360133D02*
X22465351Y122226800D01*
X22465351Y122226800D02*
X22465351Y122060133D01*
X22465351Y122060133D02*
X22432018Y121926800D01*
X22432018Y121926800D02*
X22398684Y121860133D01*
X22398684Y121860133D02*
X22365351Y121826800D01*
X22365351Y121826800D02*
X22298684Y121793466D01*
X22298684Y121793466D02*
X22232018Y121793466D01*
X22232018Y121793466D02*
X22165351Y121826800D01*
X22165351Y121826800D02*
X22132018Y121860133D01*
X22132018Y121860133D02*
X22098684Y121926800D01*
X22098684Y121926800D02*
X22065351Y122060133D01*
X22065351Y122060133D02*
X22065351Y122226800D01*
X22065351Y122226800D02*
X22098684Y122360133D01*
X22098684Y122360133D02*
X22132018Y122426800D01*
X22132018Y122426800D02*
X22165351Y122460133D01*
X22165351Y122460133D02*
X22232018Y122493466D01*
X23398684Y121793466D02*
X23332018Y121826800D01*
X23332018Y121826800D02*
X23298684Y121860133D01*
X23298684Y121860133D02*
X23265351Y121926800D01*
X23265351Y121926800D02*
X23265351Y122126800D01*
X23265351Y122126800D02*
X23298684Y122193466D01*
X23298684Y122193466D02*
X23332018Y122226800D01*
X23332018Y122226800D02*
X23398684Y122260133D01*
X23398684Y122260133D02*
X23498684Y122260133D01*
X23498684Y122260133D02*
X23565351Y122226800D01*
X23565351Y122226800D02*
X23598684Y122193466D01*
X23598684Y122193466D02*
X23632018Y122126800D01*
X23632018Y122126800D02*
X23632018Y121926800D01*
X23632018Y121926800D02*
X23598684Y121860133D01*
X23598684Y121860133D02*
X23565351Y121826800D01*
X23565351Y121826800D02*
X23498684Y121793466D01*
X23498684Y121793466D02*
X23398684Y121793466D01*
X23932017Y121793466D02*
X23932017Y122493466D01*
X24232017Y121793466D02*
X24232017Y122160133D01*
X24232017Y122160133D02*
X24198684Y122226800D01*
X24198684Y122226800D02*
X24132017Y122260133D01*
X24132017Y122260133D02*
X24032017Y122260133D01*
X24032017Y122260133D02*
X23965351Y122226800D01*
X23965351Y122226800D02*
X23932017Y122193466D01*
X24565350Y121793466D02*
X24565350Y122260133D01*
X24565350Y122193466D02*
X24598684Y122226800D01*
X24598684Y122226800D02*
X24665350Y122260133D01*
X24665350Y122260133D02*
X24765350Y122260133D01*
X24765350Y122260133D02*
X24832017Y122226800D01*
X24832017Y122226800D02*
X24865350Y122160133D01*
X24865350Y122160133D02*
X24865350Y121793466D01*
X24865350Y122160133D02*
X24898684Y122226800D01*
X24898684Y122226800D02*
X24965350Y122260133D01*
X24965350Y122260133D02*
X25065350Y122260133D01*
X25065350Y122260133D02*
X25132017Y122226800D01*
X25132017Y122226800D02*
X25165350Y122160133D01*
X25165350Y122160133D02*
X25165350Y121793466D01*
X25465350Y121826800D02*
X25532017Y121793466D01*
X25532017Y121793466D02*
X25665350Y121793466D01*
X25665350Y121793466D02*
X25732017Y121826800D01*
X25732017Y121826800D02*
X25765350Y121893466D01*
X25765350Y121893466D02*
X25765350Y121926800D01*
X25765350Y121926800D02*
X25732017Y121993466D01*
X25732017Y121993466D02*
X25665350Y122026800D01*
X25665350Y122026800D02*
X25565350Y122026800D01*
X25565350Y122026800D02*
X25498683Y122060133D01*
X25498683Y122060133D02*
X25465350Y122126800D01*
X25465350Y122126800D02*
X25465350Y122160133D01*
X25465350Y122160133D02*
X25498683Y122226800D01*
X25498683Y122226800D02*
X25565350Y122260133D01*
X25565350Y122260133D02*
X25665350Y122260133D01*
X25665350Y122260133D02*
X25732017Y122226800D01*
X26238286Y126432585D02*
X26152572Y126475442D01*
X26152572Y126475442D02*
X26024000Y126475442D01*
X26024000Y126475442D02*
X25895429Y126432585D01*
X25895429Y126432585D02*
X25809714Y126346871D01*
X25809714Y126346871D02*
X25766857Y126261157D01*
X25766857Y126261157D02*
X25724000Y126089728D01*
X25724000Y126089728D02*
X25724000Y125961157D01*
X25724000Y125961157D02*
X25766857Y125789728D01*
X25766857Y125789728D02*
X25809714Y125704014D01*
X25809714Y125704014D02*
X25895429Y125618300D01*
X25895429Y125618300D02*
X26024000Y125575442D01*
X26024000Y125575442D02*
X26109714Y125575442D01*
X26109714Y125575442D02*
X26238286Y125618300D01*
X26238286Y125618300D02*
X26281143Y125661157D01*
X26281143Y125661157D02*
X26281143Y125961157D01*
X26281143Y125961157D02*
X26109714Y125961157D01*
X26666857Y125575442D02*
X26666857Y126475442D01*
X26666857Y126475442D02*
X27181143Y125575442D01*
X27181143Y125575442D02*
X27181143Y126475442D01*
X27609714Y125575442D02*
X27609714Y126475442D01*
X27609714Y126475442D02*
X27824000Y126475442D01*
X27824000Y126475442D02*
X27952571Y126432585D01*
X27952571Y126432585D02*
X28038286Y126346871D01*
X28038286Y126346871D02*
X28081143Y126261157D01*
X28081143Y126261157D02*
X28124000Y126089728D01*
X28124000Y126089728D02*
X28124000Y125961157D01*
X28124000Y125961157D02*
X28081143Y125789728D01*
X28081143Y125789728D02*
X28038286Y125704014D01*
X28038286Y125704014D02*
X27952571Y125618300D01*
X27952571Y125618300D02*
X27824000Y125575442D01*
X27824000Y125575442D02*
X27609714Y125575442D01*
D12*
X17435428Y137707643D02*
X16935428Y137707643D01*
X16935428Y136921929D02*
X16935428Y138421929D01*
X16935428Y138421929D02*
X17649714Y138421929D01*
X18864000Y136921929D02*
X18864000Y137707643D01*
X18864000Y137707643D02*
X18792571Y137850500D01*
X18792571Y137850500D02*
X18649714Y137921929D01*
X18649714Y137921929D02*
X18364000Y137921929D01*
X18364000Y137921929D02*
X18221142Y137850500D01*
X18864000Y136993358D02*
X18721142Y136921929D01*
X18721142Y136921929D02*
X18364000Y136921929D01*
X18364000Y136921929D02*
X18221142Y136993358D01*
X18221142Y136993358D02*
X18149714Y137136215D01*
X18149714Y137136215D02*
X18149714Y137279072D01*
X18149714Y137279072D02*
X18221142Y137421929D01*
X18221142Y137421929D02*
X18364000Y137493358D01*
X18364000Y137493358D02*
X18721142Y137493358D01*
X18721142Y137493358D02*
X18864000Y137564786D01*
X19578285Y137921929D02*
X19578285Y136921929D01*
X19578285Y137779072D02*
X19649714Y137850500D01*
X19649714Y137850500D02*
X19792571Y137921929D01*
X19792571Y137921929D02*
X20006857Y137921929D01*
X20006857Y137921929D02*
X20149714Y137850500D01*
X20149714Y137850500D02*
X20221143Y137707643D01*
X20221143Y137707643D02*
X20221143Y136921929D01*
X22721143Y136993358D02*
X22578285Y136921929D01*
X22578285Y136921929D02*
X22292571Y136921929D01*
X22292571Y136921929D02*
X22149714Y136993358D01*
X22149714Y136993358D02*
X22078285Y137064786D01*
X22078285Y137064786D02*
X22006857Y137207643D01*
X22006857Y137207643D02*
X22006857Y137636215D01*
X22006857Y137636215D02*
X22078285Y137779072D01*
X22078285Y137779072D02*
X22149714Y137850500D01*
X22149714Y137850500D02*
X22292571Y137921929D01*
X22292571Y137921929D02*
X22578285Y137921929D01*
X22578285Y137921929D02*
X22721143Y137850500D01*
X23578285Y136921929D02*
X23435428Y136993358D01*
X23435428Y136993358D02*
X23363999Y137064786D01*
X23363999Y137064786D02*
X23292571Y137207643D01*
X23292571Y137207643D02*
X23292571Y137636215D01*
X23292571Y137636215D02*
X23363999Y137779072D01*
X23363999Y137779072D02*
X23435428Y137850500D01*
X23435428Y137850500D02*
X23578285Y137921929D01*
X23578285Y137921929D02*
X23792571Y137921929D01*
X23792571Y137921929D02*
X23935428Y137850500D01*
X23935428Y137850500D02*
X24006857Y137779072D01*
X24006857Y137779072D02*
X24078285Y137636215D01*
X24078285Y137636215D02*
X24078285Y137207643D01*
X24078285Y137207643D02*
X24006857Y137064786D01*
X24006857Y137064786D02*
X23935428Y136993358D01*
X23935428Y136993358D02*
X23792571Y136921929D01*
X23792571Y136921929D02*
X23578285Y136921929D01*
X24721142Y137921929D02*
X24721142Y136921929D01*
X24721142Y137779072D02*
X24792571Y137850500D01*
X24792571Y137850500D02*
X24935428Y137921929D01*
X24935428Y137921929D02*
X25149714Y137921929D01*
X25149714Y137921929D02*
X25292571Y137850500D01*
X25292571Y137850500D02*
X25364000Y137707643D01*
X25364000Y137707643D02*
X25364000Y136921929D01*
X25864000Y137921929D02*
X26435428Y137921929D01*
X26078285Y138421929D02*
X26078285Y137136215D01*
X26078285Y137136215D02*
X26149714Y136993358D01*
X26149714Y136993358D02*
X26292571Y136921929D01*
X26292571Y136921929D02*
X26435428Y136921929D01*
X26935428Y136921929D02*
X26935428Y137921929D01*
X26935428Y137636215D02*
X27006857Y137779072D01*
X27006857Y137779072D02*
X27078286Y137850500D01*
X27078286Y137850500D02*
X27221143Y137921929D01*
X27221143Y137921929D02*
X27364000Y137921929D01*
X28078285Y136921929D02*
X27935428Y136993358D01*
X27935428Y136993358D02*
X27863999Y137064786D01*
X27863999Y137064786D02*
X27792571Y137207643D01*
X27792571Y137207643D02*
X27792571Y137636215D01*
X27792571Y137636215D02*
X27863999Y137779072D01*
X27863999Y137779072D02*
X27935428Y137850500D01*
X27935428Y137850500D02*
X28078285Y137921929D01*
X28078285Y137921929D02*
X28292571Y137921929D01*
X28292571Y137921929D02*
X28435428Y137850500D01*
X28435428Y137850500D02*
X28506857Y137779072D01*
X28506857Y137779072D02*
X28578285Y137636215D01*
X28578285Y137636215D02*
X28578285Y137207643D01*
X28578285Y137207643D02*
X28506857Y137064786D01*
X28506857Y137064786D02*
X28435428Y136993358D01*
X28435428Y136993358D02*
X28292571Y136921929D01*
X28292571Y136921929D02*
X28078285Y136921929D01*
X29435428Y136921929D02*
X29292571Y136993358D01*
X29292571Y136993358D02*
X29221142Y137136215D01*
X29221142Y137136215D02*
X29221142Y138421929D01*
X21221142Y134507013D02*
X21221142Y136007013D01*
X21221142Y136007013D02*
X21792571Y136007013D01*
X21792571Y136007013D02*
X21935428Y135935584D01*
X21935428Y135935584D02*
X22006857Y135864156D01*
X22006857Y135864156D02*
X22078285Y135721299D01*
X22078285Y135721299D02*
X22078285Y135507013D01*
X22078285Y135507013D02*
X22006857Y135364156D01*
X22006857Y135364156D02*
X21935428Y135292727D01*
X21935428Y135292727D02*
X21792571Y135221299D01*
X21792571Y135221299D02*
X21221142Y135221299D01*
X23578285Y134649870D02*
X23506857Y134578442D01*
X23506857Y134578442D02*
X23292571Y134507013D01*
X23292571Y134507013D02*
X23149714Y134507013D01*
X23149714Y134507013D02*
X22935428Y134578442D01*
X22935428Y134578442D02*
X22792571Y134721299D01*
X22792571Y134721299D02*
X22721142Y134864156D01*
X22721142Y134864156D02*
X22649714Y135149870D01*
X22649714Y135149870D02*
X22649714Y135364156D01*
X22649714Y135364156D02*
X22721142Y135649870D01*
X22721142Y135649870D02*
X22792571Y135792727D01*
X22792571Y135792727D02*
X22935428Y135935584D01*
X22935428Y135935584D02*
X23149714Y136007013D01*
X23149714Y136007013D02*
X23292571Y136007013D01*
X23292571Y136007013D02*
X23506857Y135935584D01*
X23506857Y135935584D02*
X23578285Y135864156D01*
X24721142Y135292727D02*
X24935428Y135221299D01*
X24935428Y135221299D02*
X25006857Y135149870D01*
X25006857Y135149870D02*
X25078285Y135007013D01*
X25078285Y135007013D02*
X25078285Y134792727D01*
X25078285Y134792727D02*
X25006857Y134649870D01*
X25006857Y134649870D02*
X24935428Y134578442D01*
X24935428Y134578442D02*
X24792571Y134507013D01*
X24792571Y134507013D02*
X24221142Y134507013D01*
X24221142Y134507013D02*
X24221142Y136007013D01*
X24221142Y136007013D02*
X24721142Y136007013D01*
X24721142Y136007013D02*
X24864000Y135935584D01*
X24864000Y135935584D02*
X24935428Y135864156D01*
X24935428Y135864156D02*
X25006857Y135721299D01*
X25006857Y135721299D02*
X25006857Y135578442D01*
X25006857Y135578442D02*
X24935428Y135435584D01*
X24935428Y135435584D02*
X24864000Y135364156D01*
X24864000Y135364156D02*
X24721142Y135292727D01*
X24721142Y135292727D02*
X24221142Y135292727D01*
D11*
X19907524Y131926800D02*
X20050381Y131879180D01*
X20050381Y131879180D02*
X20288476Y131879180D01*
X20288476Y131879180D02*
X20383714Y131926800D01*
X20383714Y131926800D02*
X20431333Y131974419D01*
X20431333Y131974419D02*
X20478952Y132069657D01*
X20478952Y132069657D02*
X20478952Y132164895D01*
X20478952Y132164895D02*
X20431333Y132260133D01*
X20431333Y132260133D02*
X20383714Y132307752D01*
X20383714Y132307752D02*
X20288476Y132355371D01*
X20288476Y132355371D02*
X20098000Y132402990D01*
X20098000Y132402990D02*
X20002762Y132450609D01*
X20002762Y132450609D02*
X19955143Y132498228D01*
X19955143Y132498228D02*
X19907524Y132593466D01*
X19907524Y132593466D02*
X19907524Y132688704D01*
X19907524Y132688704D02*
X19955143Y132783942D01*
X19955143Y132783942D02*
X20002762Y132831561D01*
X20002762Y132831561D02*
X20098000Y132879180D01*
X20098000Y132879180D02*
X20336095Y132879180D01*
X20336095Y132879180D02*
X20478952Y132831561D01*
X21050381Y132450609D02*
X20955143Y132498228D01*
X20955143Y132498228D02*
X20907524Y132545847D01*
X20907524Y132545847D02*
X20859905Y132641085D01*
X20859905Y132641085D02*
X20859905Y132688704D01*
X20859905Y132688704D02*
X20907524Y132783942D01*
X20907524Y132783942D02*
X20955143Y132831561D01*
X20955143Y132831561D02*
X21050381Y132879180D01*
X21050381Y132879180D02*
X21240857Y132879180D01*
X21240857Y132879180D02*
X21336095Y132831561D01*
X21336095Y132831561D02*
X21383714Y132783942D01*
X21383714Y132783942D02*
X21431333Y132688704D01*
X21431333Y132688704D02*
X21431333Y132641085D01*
X21431333Y132641085D02*
X21383714Y132545847D01*
X21383714Y132545847D02*
X21336095Y132498228D01*
X21336095Y132498228D02*
X21240857Y132450609D01*
X21240857Y132450609D02*
X21050381Y132450609D01*
X21050381Y132450609D02*
X20955143Y132402990D01*
X20955143Y132402990D02*
X20907524Y132355371D01*
X20907524Y132355371D02*
X20859905Y132260133D01*
X20859905Y132260133D02*
X20859905Y132069657D01*
X20859905Y132069657D02*
X20907524Y131974419D01*
X20907524Y131974419D02*
X20955143Y131926800D01*
X20955143Y131926800D02*
X21050381Y131879180D01*
X21050381Y131879180D02*
X21240857Y131879180D01*
X21240857Y131879180D02*
X21336095Y131926800D01*
X21336095Y131926800D02*
X21383714Y131974419D01*
X21383714Y131974419D02*
X21431333Y132069657D01*
X21431333Y132069657D02*
X21431333Y132260133D01*
X21431333Y132260133D02*
X21383714Y132355371D01*
X21383714Y132355371D02*
X21336095Y132402990D01*
X21336095Y132402990D02*
X21240857Y132450609D01*
X22050381Y132879180D02*
X22145619Y132879180D01*
X22145619Y132879180D02*
X22240857Y132831561D01*
X22240857Y132831561D02*
X22288476Y132783942D01*
X22288476Y132783942D02*
X22336095Y132688704D01*
X22336095Y132688704D02*
X22383714Y132498228D01*
X22383714Y132498228D02*
X22383714Y132260133D01*
X22383714Y132260133D02*
X22336095Y132069657D01*
X22336095Y132069657D02*
X22288476Y131974419D01*
X22288476Y131974419D02*
X22240857Y131926800D01*
X22240857Y131926800D02*
X22145619Y131879180D01*
X22145619Y131879180D02*
X22050381Y131879180D01*
X22050381Y131879180D02*
X21955143Y131926800D01*
X21955143Y131926800D02*
X21907524Y131974419D01*
X21907524Y131974419D02*
X21859905Y132069657D01*
X21859905Y132069657D02*
X21812286Y132260133D01*
X21812286Y132260133D02*
X21812286Y132498228D01*
X21812286Y132498228D02*
X21859905Y132688704D01*
X21859905Y132688704D02*
X21907524Y132783942D01*
X21907524Y132783942D02*
X21955143Y132831561D01*
X21955143Y132831561D02*
X22050381Y132879180D01*
X23288476Y132879180D02*
X22812286Y132879180D01*
X22812286Y132879180D02*
X22764667Y132402990D01*
X22764667Y132402990D02*
X22812286Y132450609D01*
X22812286Y132450609D02*
X22907524Y132498228D01*
X22907524Y132498228D02*
X23145619Y132498228D01*
X23145619Y132498228D02*
X23240857Y132450609D01*
X23240857Y132450609D02*
X23288476Y132402990D01*
X23288476Y132402990D02*
X23336095Y132307752D01*
X23336095Y132307752D02*
X23336095Y132069657D01*
X23336095Y132069657D02*
X23288476Y131974419D01*
X23288476Y131974419D02*
X23240857Y131926800D01*
X23240857Y131926800D02*
X23145619Y131879180D01*
X23145619Y131879180D02*
X22907524Y131879180D01*
X22907524Y131879180D02*
X22812286Y131926800D01*
X22812286Y131926800D02*
X22764667Y131974419D01*
X23955143Y132879180D02*
X24050381Y132879180D01*
X24050381Y132879180D02*
X24145619Y132831561D01*
X24145619Y132831561D02*
X24193238Y132783942D01*
X24193238Y132783942D02*
X24240857Y132688704D01*
X24240857Y132688704D02*
X24288476Y132498228D01*
X24288476Y132498228D02*
X24288476Y132260133D01*
X24288476Y132260133D02*
X24240857Y132069657D01*
X24240857Y132069657D02*
X24193238Y131974419D01*
X24193238Y131974419D02*
X24145619Y131926800D01*
X24145619Y131926800D02*
X24050381Y131879180D01*
X24050381Y131879180D02*
X23955143Y131879180D01*
X23955143Y131879180D02*
X23859905Y131926800D01*
X23859905Y131926800D02*
X23812286Y131974419D01*
X23812286Y131974419D02*
X23764667Y132069657D01*
X23764667Y132069657D02*
X23717048Y132260133D01*
X23717048Y132260133D02*
X23717048Y132498228D01*
X23717048Y132498228D02*
X23764667Y132688704D01*
X23764667Y132688704D02*
X23812286Y132783942D01*
X23812286Y132783942D02*
X23859905Y132831561D01*
X23859905Y132831561D02*
X23955143Y132879180D01*
D13*
X28492000Y125400000D02*
X28492000Y124150000D01*
X28492000Y124150000D02*
X29742000Y124150000D01*
X28782000Y132060000D02*
X28782000Y124440000D01*
X28782000Y124440000D02*
X34752000Y124440000D01*
X28792000Y132050000D02*
X28792000Y130250000D01*
X28792000Y130250000D02*
X29542000Y130250000D01*
X28792000Y128750000D02*
X28792000Y127750000D01*
X28792000Y127750000D02*
X29542000Y127750000D01*
X28792000Y126250000D02*
X28792000Y124450000D01*
X28792000Y124450000D02*
X29542000Y124450000D01*
X29542000Y132050000D02*
X28792000Y132050000D01*
X29542000Y130250000D02*
X29542000Y132050000D01*
X29542000Y128750000D02*
X28792000Y128750000D01*
X29542000Y127750000D02*
X29542000Y128750000D01*
X29542000Y126250000D02*
X28792000Y126250000D01*
X29542000Y124450000D02*
X29542000Y126250000D01*
X31042000Y132050000D02*
X31042000Y131300000D01*
X31042000Y131300000D02*
X33992000Y131300000D01*
X31042000Y125200000D02*
X33992000Y125200000D01*
X31042000Y124450000D02*
X31042000Y125200000D01*
X33992000Y131300000D02*
X33992000Y128250000D01*
X33992000Y125200000D02*
X33992000Y128250000D01*
X34752000Y132060000D02*
X28782000Y132060000D01*
X34752000Y124440000D02*
X34752000Y132060000D01*
X23898000Y130882000D02*
X20298000Y130882000D01*
X21318000Y126582000D02*
G75*
G02*
X20289555Y130859684I780000J2450000D01*
G01*
X23909875Y130873741D02*
G75*
G02*
X22918000Y126582000I-1811875J-1841741D01*
G01*
X19074000Y122174000D02*
X19844000Y122174000D01*
X19844000Y123544000D02*
X19844000Y120804000D01*
X19844000Y120804000D02*
X26384000Y120804000D01*
X26384000Y123544000D02*
X19844000Y123544000D01*
X26384000Y120804000D02*
X26384000Y123544000D01*
X27154000Y122174000D02*
X26384000Y122174000D01*
X14418000Y132140000D02*
X15748000Y132140000D01*
X14418000Y130810000D02*
X14418000Y132140000D01*
X14418000Y129540000D02*
X14418000Y124400000D01*
X14418000Y129540000D02*
X17078000Y129540000D01*
X14418000Y124400000D02*
X17078000Y124400000D01*
X17078000Y129540000D02*
X17078000Y124400000D01*
%LPC*%
D14*
X31242000Y127000000D03*
D15*
X31242000Y129500000D03*
D16*
X23368000Y129432000D03*
D17*
X22098000Y127362000D03*
X20828000Y129432000D03*
D18*
X18034000Y122174000D03*
D19*
X28194000Y122174000D03*
D20*
X15748000Y130810000D03*
D21*
X15748000Y128270000D03*
X15748000Y125730000D03*
D22*
X13970000Y135636000D03*
X32258000Y135636000D03*
X13970000Y120904000D03*
X32258000Y120904000D03*
%LPD*%
M02*
